<svg xmlns="http://www.w3.org/2000/svg" width="283.628" height="298.94" viewBox="0 0 283.628 298.94"><defs><style>.a{fill:#fff;}.b{fill:#7a7473;}.c{fill:#211715;}</style></defs><path class="a" d="M2.755,296.16C5.3,290.888,7.47,285.43,10.4,280.344c2.592-4.5,7.367-15.3,17.1-23.923,5.152-4.569,17.814-13.83,37.113-22.816,4.31-2.007,9.294-4.412,14.187-6.6a111.752,111.752,0,0,0,125.993-.021c4.907,2.2,9.909,4.61,14.233,6.623,19.3,8.986,31.961,18.247,37.114,22.816,9.727,8.624,14.5,19.421,17.094,23.923,2.927,5.086,5.1,10.544,7.642,15.816Z"/><path class="a" d="M212.341,115.054a10.354,10.354,0,0,1,8.286-2.424,9.773,9.773,0,0,1,7.03,4.674,13.814,13.814,0,0,1,1.448,5.561,41.428,41.428,0,0,1-4.224,21.96,26.331,26.331,0,0,1-6.809,8.936,17.449,17.449,0,0,1-8.118,3.659s-.5.077-1.39.216c-.666,2.493-1.415,4.593-1.782,5.708-2.264,6.145-14.5,26.775-30.154,35.616.245,2.849.632,5.7,1.124,8.513.807,4.63.561,8.751,6.963,11.067.315.105,10.137,4.77,15.626,7.366,0,0,3.193,1.413,5.5,2.441-4.879,9.755-25.454,31.641-62.139,31.641-40.376,0-62.483-22.763-65.407-31.6,1.963-.963,8.374-3.794,8.374-3.794,6.016-2.753,12.891-5.963,13.136-6.05,6.419-2.316,6.156-6.437,6.98-11.067.552-3.187.959-6.084,1.2-9.28a64.016,64.016,0,0,1-16.159-14.157A70.459,70.459,0,0,1,78.4,157.824c-1.648-.25-2.646-.4-2.646-.4a17.449,17.449,0,0,1-8.118-3.659,26.344,26.344,0,0,1-6.809-8.936,41.428,41.428,0,0,1-4.224-21.96,13.814,13.814,0,0,1,1.448-5.561,9.773,9.773,0,0,1,7.03-4.674,10.354,10.354,0,0,1,8.286,2.424s.164-54.613,70.057-54.613C215.137,60.441,212.341,115.054,212.341,115.054Z"/><path class="b" d="M114.121,5.147c-12.355,2.761-24.548,8.4-34.827,18.747l7.979,4.239C75.883,34.257,66.88,47.664,62.865,59.454c-4.484,13.167-5.815,31.917-.459,54.07a9.7,9.7,0,0,1,2.38-.672,10.233,10.233,0,0,1,8.872,3.007c20.032-19.166,37.487-30.538,55.1-44.371.1,1.172,3.854,10.552,4.732,10.909,1.173.477,13.818-7.442,22.929-13.064.841.149,14.908,3.467,14.908,3.467a53.712,53.712,0,0,1,16.871,9.88c10.25,8.82,18.494,21.591,23.521,32.954a10.165,10.165,0,0,1,8.616-2.782,9.991,9.991,0,0,1,1.806.445c5.147-13.222,5.9-32.382-.6-50.561-4.572-12.782-15.97-26.175-24.064-29.906l-11.687-8.4C175.829,10.787,160.776,3.6,139.534,2.948A102.436,102.436,0,0,0,114.121,5.147Z"/><path class="c" d="M87.784,227.23q5.4-2.474,10.789-4.977a19.24,19.24,0,0,0,2.278-1.045q-1.1.45-.207.107.525-.21,1.044-.434a14.174,14.174,0,0,0,1.341-.652,12.789,12.789,0,0,0,2.14-1.542c2.249-1.983,3.165-4.838,3.618-7.705.653-4.132,1.354-8.251,1.693-12.424a2.824,2.824,0,0,0-2.8-2.8,2.855,2.855,0,0,0-2.8,2.8c-.3,3.676-.918,7.3-1.493,10.935a17.315,17.315,0,0,1-.8,3.379c.2-.521-.207.409-.263.509a6.478,6.478,0,0,1-.427.669c.282-.381-.294.3-.372.378s-.658.565-.478.432c-1.669,1.236-3.954,1.933-5.842,2.807q-5.124,2.369-10.252,4.728a2.822,2.822,0,0,0-1,3.831,2.866,2.866,0,0,0,3.831,1Z"/><path class="c" d="M173.533,199.207c.34,3.815.981,7.577,1.553,11.36a14.039,14.039,0,0,0,2.882,7.306,11.122,11.122,0,0,0,3.571,2.691c.507.248,1.032.465,1.556.675.139.056,1.041.428.305.107-.663-.29.12.064.292.143,2.03.938,4.048,1.9,6.069,2.857q4.435,2.1,8.871,4.2a2.878,2.878,0,0,0,3.831-1,2.825,2.825,0,0,0-1-3.831c-5.183-2.451-10.322-5.039-15.572-7.344a10.422,10.422,0,0,1-3.777-2.244c-.215-.257-.241-.28-.076-.072q-.154-.216-.294-.442a7.186,7.186,0,0,1-.482-.925c.223.521-.131-.455-.16-.554-.1-.338-.184-.681-.258-1.026a97.41,97.41,0,0,1-1.706-11.9,2.873,2.873,0,0,0-2.8-2.8,2.821,2.821,0,0,0-2.8,2.8Z"/><path class="c" d="M206.751,149.933a35.2,35.2,0,0,1-1.717,9.053c-.33,1.094-.692,2.176-1.055,3.259-.09.267-.177.534-.276.8-.045.118-.1.234-.14.353-.16.471.309-.682.039-.094a73.83,73.83,0,0,1-4.7,8.566c-5.008,7.945-10.962,15.351-18.507,21.251a35.263,35.263,0,0,1-13.628,6.863c-3.512.8-2.026,6.2,1.489,5.4,10.317-2.354,18.955-9.827,25.75-17.6a89.227,89.227,0,0,0,14.212-21.164,44.7,44.7,0,0,0,4.13-16.679c.11-3.6-5.49-3.6-5.6,0Z"/><path class="c" d="M73.176,148.855a83.249,83.249,0,0,0,10.362,28.991c6.009,9.932,14.78,18.907,25.123,24.316a47.912,47.912,0,0,0,17.422,5.235,2.819,2.819,0,0,0,2.8-2.8,2.863,2.863,0,0,0-2.8-2.8c-9.847-1.008-18.861-5.981-26.07-12.65a66.627,66.627,0,0,1-17.751-27.2,92.732,92.732,0,0,1-3.686-14.579,2.825,2.825,0,0,0-3.445-1.956,2.864,2.864,0,0,0-1.955,3.445Z"/><path class="c" d="M214.025,117.256a7.5,7.5,0,0,1,8.545-.688c3.119,1.836,3.464,5.39,3.569,8.727.251,8.034-1.981,16.666-6.873,23.145a16.3,16.3,0,0,1-10.353,6.5,2.821,2.821,0,0,0-1.955,3.444,2.866,2.866,0,0,0,3.444,1.956c10.329-1.732,16.49-11.484,19.376-20.762a43.615,43.615,0,0,0,1.923-15.17c-.272-5.095-1.651-9.939-6.3-12.678a13.252,13.252,0,0,0-15.332,1.563,2.827,2.827,0,0,0,0,3.96,2.856,2.856,0,0,0,3.96,0Z"/><path class="c" d="M75.051,113.3a13.2,13.2,0,0,0-13.513-2.429,12.736,12.736,0,0,0-5.63,4.363,14.607,14.607,0,0,0-2.314,7.04c-1.145,9.843,1.495,20.986,7.421,29,3.363,4.544,8.013,8.122,13.7,9.076a2.885,2.885,0,0,0,3.444-1.956,2.822,2.822,0,0,0-1.956-3.444c-7.945-1.332-12.58-8.468-15.047-15.582a38.947,38.947,0,0,1-2.2-12.3c-.04-3.337-.092-7.571,2.677-9.873a7.5,7.5,0,0,1,9.454.066,2.87,2.87,0,0,0,3.959,0,2.825,2.825,0,0,0,0-3.96Z"/><path class="c" d="M196.06,35.247c4.041,1.9,7.18,4.873,10.238,8.188a65.7,65.7,0,0,1,9.572,13.483c5.683,10.59,7.867,23.248,7.5,35.18a64.2,64.2,0,0,1-3.019,17.911c-1.118,3.435,4.288,4.907,5.4,1.489,3.844-11.815,4.064-24.721,1.86-36.877a70.689,70.689,0,0,0-5.977-18.732,71.085,71.085,0,0,0-9.964-14.833c-3.562-4.127-7.789-8.295-12.782-10.644a2.879,2.879,0,0,0-3.831,1,2.824,2.824,0,0,0,1,3.831Z"/><path class="c" d="M157.3,65.5c-5.991,3.676-11.93,7.444-18.009,10.976-1.2.7-2.4,1.383-3.624,2.035-.46.245-.922.486-1.391.714-.182.089-.369.17-.55.26-.571.283.59-.168-.06.026-.493.147-.913.1-.011.1a5.444,5.444,0,0,1,1.659.686c-.115-.114.4.681.071.053-.507-.971-1.011-1.93-1.457-2.933q-.214-.482-.421-.966c.172.4-.234-.566-.289-.7-.277-.679-.547-1.361-.805-2.047-.226-.6-.447-1.195-.645-1.8-.123-.374-.373-1.694-.216-.418a2.847,2.847,0,0,0-4.78-1.98c-13.521,10.611-27.635,20.442-40.79,31.524q-6.34,5.342-12.391,11.014c-2.635,2.47,1.331,6.424,3.959,3.96,13.083-12.264,27.355-22.99,41.677-33.737,3.863-2.9,7.706-5.82,11.505-8.8l-4.78-1.98c.322,2.61,1.6,5.15,2.614,7.546.841,1.979,1.881,5.471,4.26,6.081,2.193.563,4.809-1.287,6.625-2.288,3.187-1.757,6.3-3.653,9.4-5.549,3.766-2.3,7.51-4.635,11.271-6.943,3.067-1.881.257-6.727-2.826-4.835Z"/><path class="c" d="M170.579,75.5a55.107,55.107,0,0,1,18.4,11.679,87.687,87.687,0,0,1,13.94,17.7,107.726,107.726,0,0,1,5.869,11.039,2.822,2.822,0,0,0,3.831,1,2.864,2.864,0,0,0,1-3.831,104.947,104.947,0,0,0-11.959-19.957c-5.033-6.573-10.821-12.658-17.789-17.2a64.159,64.159,0,0,0-11.808-5.83,2.822,2.822,0,0,0-3.445,1.956,2.865,2.865,0,0,0,1.956,3.444Z"/><path class="c" d="M90.509,23.629C78.127,28.248,68.936,39.472,63.317,51.085c-5.5,11.369-7.437,24.08-7.18,36.632a125.1,125.1,0,0,0,3.53,26.39c.836,3.5,6.237,2.021,5.4-1.489-5.785-24.249-5.333-51.983,11.538-71.889,4.172-4.923,9.341-9.443,15.393-11.7a2.878,2.878,0,0,0,1.956-3.445,2.823,2.823,0,0,0-3.445-1.955Z"/><path class="c" d="M188.2,23.013A52.665,52.665,0,0,0,172.114,8.379,61.48,61.48,0,0,0,150.262,1.1C134.35-1.217,117.1.014,102.046,5.876A71.522,71.522,0,0,0,77.314,21.914c-2.551,2.552,1.407,6.513,3.96,3.96C92.518,14.628,107.494,8.287,123.1,6.421c14.415-1.723,30.517-1.134,43.579,5.392a46.389,46.389,0,0,1,16.691,14.026,2.884,2.884,0,0,0,3.831,1.005,2.821,2.821,0,0,0,1-3.831Z"/><path class="c" d="M89.007,219.828c-8.379,2.94-16.369,6.931-24.4,10.7a218.526,218.526,0,0,0-23.8,12.786A125.98,125.98,0,0,0,26.487,253.6a67.412,67.412,0,0,0-14.525,18.06c-1.531,2.664-2.945,5.4-4.438,8.08-2.7,4.852-4.783,10.012-7.187,15.01a2.875,2.875,0,0,0,1.005,3.831,2.825,2.825,0,0,0,3.831-1c2.07-4.306,3.9-8.726,6.094-12.972,1.349-2.611,2.8-5.181,4.212-7.761,3.658-6.7,7.963-13,13.663-18.146.765-.69,1.552-1.355,2.351-2.006q.627-.512,1.266-1.011l.362-.283c-.084.066-.428.328,0,0,.263-.2.525-.4.789-.6,2.449-1.837,4.969-3.579,7.533-5.25A196.107,196.107,0,0,1,63.8,237.068c8.747-4.19,17.528-8.624,26.692-11.84a2.87,2.87,0,0,0,1.955-3.445,2.825,2.825,0,0,0-3.444-1.955Z"/><path class="c" d="M193.128,225.228c8.048,2.824,15.7,6.688,23.417,10.3a214.5,214.5,0,0,1,23.291,12.522c2.78,1.747,5.513,3.571,8.174,5.495q.807.584,1.6,1.18.35.261.7.526l.384.294c-.449-.344-.012-.009.08.063.834.657,1.662,1.321,2.472,2.008a63.239,63.239,0,0,1,13.735,17.14c1.547,2.71,3.007,5.475,4.506,8.213,2.593,4.734,4.625,9.745,6.963,14.605a2.824,2.824,0,0,0,3.83,1,2.86,2.86,0,0,0,1-3.831c-6.785-14.109-13.07-29.481-25.01-40.159a108.741,108.741,0,0,0-13.127-9.78,196.163,196.163,0,0,0-22.942-12.784c-9.049-4.312-18.119-8.872-27.591-12.2a2.828,2.828,0,0,0-3.444,1.955,2.857,2.857,0,0,0,1.956,3.445Z"/><path class="c" d="M77.381,229.414a113.376,113.376,0,0,0,49.307,18.792,114.862,114.862,0,0,0,52.919-5.392,111.394,111.394,0,0,0,26.58-13.42,2.873,2.873,0,0,0,1-3.831,2.826,2.826,0,0,0-3.831-1,108.636,108.636,0,0,1-47.169,18.136,110.005,110.005,0,0,1-50.51-5.187,105.854,105.854,0,0,1-25.475-12.929,2.827,2.827,0,0,0-3.831,1,2.857,2.857,0,0,0,1,3.831Z"/><path class="c" d="M130.245,170.6a27.05,27.05,0,0,0,13.034,3c4.6-.03,9.325-.9,13.02-3.783,1.194-.93.976-2.983,0-3.96a2.873,2.873,0,0,0-3.96,0c.807-.628.034-.046-.172.087-.268.172-.545.331-.827.479-.164.086-1.081.493-.464.243-.375.152-.756.291-1.141.414a20.984,20.984,0,0,1-6.886.92,21.916,21.916,0,0,1-6.573-.885c-.417-.125-.825-.273-1.237-.416-.135-.046-.265-.105-.4-.155.681.253.074.033-.053-.026-.512-.24-1.016-.493-1.516-.757a2.861,2.861,0,0,0-3.831,1,2.83,2.83,0,0,0,1,3.83Z"/><path class="c" d="M142.163,139.5a62.708,62.708,0,0,1,1.478,6.758l-.1-.745a4.1,4.1,0,0,1,.025.933l.1-.744a2.23,2.23,0,0,1-.1.419l.283-.669a1.811,1.811,0,0,1-.148.27l.437-.566a1.411,1.411,0,0,1-.22.217l.566-.438a4.345,4.345,0,0,1-.535.284l.669-.283a3.955,3.955,0,0,1-.9.264l.744-.1a3.636,3.636,0,0,1-.847,0l.745.1c-.32-.045-.633-.122-.952-.165a3.1,3.1,0,0,0-2.158.282,2.8,2.8,0,0,0-1,3.831,2.677,2.677,0,0,0,1.673,1.287c.668.09,1.316.262,1.994.291a6.242,6.242,0,0,0,2.865-.67,3.991,3.991,0,0,0,2.254-2.647,6.907,6.907,0,0,0-.033-2.926c-.367-2.177-.871-4.334-1.431-6.47a2.8,2.8,0,0,0-5.4,1.489Z"/><path class="c" d="M105.79,120.537c-1.129,3.667-.393,12.1,6.555,12.821,9.183-.055,9.671-10.254,6.58-15.05C116.394,114.381,108.952,112.748,105.79,120.537Z"/><path class="c" d="M179.327,120.537c1.128,3.667.393,12.1-6.555,12.821-9.183-.055-9.672-10.255-6.581-15.05C168.722,114.381,176.164,112.748,179.327,120.537Z"/></svg>